# Alias OBJ Model File
# Exported from SketchUp, (c) 2000-2012 Trimble Navigation Limited
# File units = meters

mtllib CarrotWorld2.mtl

g Mesh1 Model

usemtl FrontColor
v 0 0 -0
vt 0 0
vn 0 0 -1
v 0.25 0.25 7.21911e-16
vt -9.84252 9.84252
v 8 0 -0
vt -314.961 0
f 1/1/1 2/2/1 3/3/1

v 0 12 -0
vt 0 472.441
f 2/2/1 1/1/1 4/4/1

vn -1 0 -0
v 0 0 3
vt 118.11 0
v 0 12 3
vt 118.11 472.441
f 4/4/2 1/1/2 5/5/2 6/6/2 

vn 0 -1 -0
v 8 0 3
vt -314.961 -118.11
vt 0 -118.11
f 1/1/3 3/3/3 7/7/3 5/8/3 

vn 1 0 -0
v 8 12 -0
v 8 12 3
vt -118.11 472.441
vt -118.11 0
f 3/1/4 8/4/4 9/9/4 7/10/4 

v 7.75 0.25 7.21911e-16
vt -305.118 9.84252
vt -314.961 472.441
f 10/11/1 8/12/1 3/3/1

v 7.75 11.75 7.21911e-16
vt -305.118 462.598
f 8/12/1 10/11/1 11/13/1

v 7.75 0.25 3
vt 118.11 9.84252
v 7.75 11.75 3
vt 118.11 462.598
vt 2.84217e-14 462.598
vt 2.84217e-14 9.84252
f 12/14/2 13/15/2 11/16/2 10/17/2 

vt 305.118 9.84252
vn 0 0 1
vt 314.961 472.441
vt 305.118 462.598
f 12/18/5 9/19/5 13/20/5

vt 314.961 0
f 12/18/5 7/21/5 9/19/5

f 7/21/5 12/18/5 5/1/5

v 0.25 0.25 3
vt 9.84252 9.84252
f 14/22/5 5/1/5 12/18/5

f 5/1/5 14/22/5 6/4/5

v 0.25 11.75 3
vt 9.84252 462.598
f 6/4/5 14/22/5 15/23/5

vt -118.11 462.598
vt -118.11 9.84252
vt -2.84217e-14 9.84252
v 0.25 11.75 7.21911e-16
vt -2.84217e-14 462.598
f 15/24/4 14/25/4 2/26/4 16/27/4 

vt 9.84252 -118.11
vn 1.20319e-17 1 -0
vt 305.118 -118.11
vt 305.118 -2.84217e-14
vt 9.84252 -2.84217e-14
f 14/28/6 12/29/6 10/30/6 2/31/6 

f 3/3/1 2/2/1 10/11/1

vt -9.84252 462.598
f 2/2/1 4/4/1 16/32/1

f 16/32/1 4/4/1 11/13/1

f 8/12/1 11/13/1 4/4/1

vn 0 1 -0
vt 314.961 -118.11
f 8/21/7 4/1/7 6/8/7 9/33/7 

f 6/4/5 15/23/5 9/19/5

f 13/20/5 9/19/5 15/23/5

vt -305.118 -118.11
vt -9.84252 -118.11
vt -9.84252 -2.84217e-14
vt -305.118 -2.84217e-14
f 13/34/3 15/35/3 16/36/3 11/37/3 

